#!OML:ASF E:\Steps\Project 1\Capture day 1\Session 2\Subject.ASF
:FULLY-SPECIFIED
:DEGREES
359
root 12.2828 18.8684 16.5834 -151.701 1.87697 177.433
lowerback -27.4627 -3.36826 -5.11573
upperback -2.87873 -2.08192 0.205926
thorax 12.2637 -0.880936 2.48277
lowerneck -2.36423 -1.88703 1.73239
upperneck 7.99435 -2.47294 0.24054
head 2.93502 -1.0973 -0.297809
rclavicle -5.11871e-015 8.54774e-015
rhumerus -43.7728 -12.9477 -78.5463
rradius 32.8572
rwrist -5.19111
rhand -8.77831 -47.9718
rfingers 7.12502
rthumb 17.1598 -77.234
lclavicle -5.11871e-015 8.54774e-015
lhumerus -30.3685 13.3125 77.6877
lradius 21.7482
lwrist -4.08807
lhand -23.4558 -13.6727
lfingers 7.12502
lthumb 3.00292 16.2859
rfemur -25.9816 7.01103 19.002
rtibia 8.95866
rfoot -18.4314 -2.93172
rtoes -27.9482
lfemur -25.7396 -9.35541 -20.7278
ltibia 6.17106
lfoot -2.78751 -9.1952
ltoes -13.9128
360
root 12.2888 18.8744 16.587 -151.675 1.90922 177.342
lowerback -27.4852 -3.45259 -5.23823
upperback -2.90756 -2.16118 0.289936
thorax 12.2573 -0.923392 2.61977
lowerneck -2.36597 -1.80481 1.52287
upperneck 7.28399 -2.37844 0.220595
head 2.69826 -1.07793 -0.26051
rclavicle -1.30949e-014 -1.22253e-014
rhumerus -43.5072 -12.8685 -78.419
rradius 32.4666
rwrist -5.05167
rhand -8.71207 -48.3057
rfingers 7.12502
rthumb 17.2236 -77.5624
lclavicle -1.30949e-014 -1.22253e-014
lhumerus -30.2772 13.6491 77.7292
lradius 21.7706
lwrist -4.31924
lhand -23.5701 -13.6996
lfingers 7.12502
lthumb 2.89254 16.2605
rfemur -25.86 6.95086 18.9251
rtibia 8.64476
rfoot -18.3763 -2.98623
rtoes -28.4883
lfemur -25.8104 -9.12651 -20.9181
ltibia 6.26851
lfoot -2.69439 -9.49643
ltoes -13.6483
361
root 12.2906 18.8757 16.5819 -151.603 2.06395 177.319
lowerback -27.6887 -3.46766 -5.20422
upperback -2.95342 -2.17183 0.338653
thorax 12.3128 -0.922063 2.64993
lowerneck -2.40728 -1.68517 1.46577
upperneck 6.83174 -2.21953 0.00233493
head 2.5536 -1.01995 -0.313024
rclavicle 2.25372e-014 1.49089e-015
rhumerus -43.2971 -12.8399 -78.262
rradius 32.0497
rwrist -4.80131
rhand -8.73308 -48.3008
rfingers 7.12502
rthumb 17.2034 -77.5592
lclavicle 2.25372e-014 1.49089e-015
lhumerus -30.216 14.0164 77.718
lradius 21.718
lwrist -4.62618
lhand -23.3567 -13.4152
lfingers 7.12502
lthumb 3.09863 16.542
rfemur -25.8094 7.16438 18.7669
rtibia 8.38484
rfoot -18.3983 -3.33123
rtoes -29.5779
lfemur -25.8217 -9.27176 -20.9314
ltibia 6.1828
lfoot -2.85502 -9.30827
ltoes -14.1691
362
root 12.2977 18.8798 16.5852 -151.53 2.11727 177.232
lowerback -27.6699 -3.59072 -5.36261
upperback -3.07012 -2.29041 0.484562
thorax 12.1909 -0.97649 2.86643
lowerneck -2.38161 -1.51693 1.15062
upperneck 6.21732 -1.99783 -0.0141138
head 2.34923 -0.931877 -0.253924
rclavicle 6.94504e-015 4.27387e-015
rhumerus -43.2243 -12.5404 -78.0584
rradius 31.8177
rwrist -4.63559
rhand -8.77587 -48.1795
rfingers 7.12502
rthumb 17.1622 -77.4415
lclavicle 6.94504e-015 4.27387e-015
lhumerus -30.2366 14.4576 77.8119
lradius 21.6343
lwrist -4.92891
lhand -23.4279 -13.4187
lfingers 7.12502
lthumb 3.02991 16.5395
rfemur -25.8122 7.21751 18.6639
rtibia 8.2031
rfoot -18.319 -3.48686
rtoes -29.9298
lfemur -25.9007 -9.12333 -21.056
ltibia 6.16308
lfoot -2.82419 -9.4241
ltoes -13.9836
363
root 12.3017 18.8822 16.5855 -151.528 2.12881 177.191
lowerback -27.5587 -3.61352 -5.45554
upperback -3.17183 -2.30172 0.577729
thorax 12.0237 -0.97842 3.02664
lowerneck -2.3957 -1.42282 0.849674
upperneck 5.59182 -1.88188 0.079533
head 2.15008 -0.890459 -0.166653
rclavicle -2.07202e-014 7.06928e-015
rhumerus -43.1956 -12.6512 -77.7293
rradius 31.5192
rwrist -4.31177
rhand -8.65622 -47.9372
rfingers 7.12502
rthumb 17.2773 -77.1892
lclavicle -2.07202e-014 7.06928e-015
lhumerus -30.1948 14.5941 77.967
lradius 21.5597
lwrist -5.04971
lhand -23.4821 -13.5778
lfingers 7.12502
lthumb 2.97751 16.3812
rfemur -25.7601 7.16314 18.6465
rtibia 8.10568
rfoot -18.3081 -3.42428
rtoes -29.9326
lfemur -25.89 -9.05179 -21.1382
ltibia 6.17281
lfoot -2.74775 -9.39745
ltoes -13.6694
364
root 12.3043 18.8847 16.5815 -151.651 2.06635 177.149
lowerback -27.3996 -3.53356 -5.48445
upperback -3.22778 -2.1869 0.522154
thorax 11.8632 -0.918626 3.02679
lowerneck -2.58207 -1.49269 1.14916
upperneck 5.42698 -1.9856 -0.160628
head 2.12399 -0.946371 -0.296448
rclavicle -8.83039e-015 -2.80411e-014
rhumerus -43.1952 -13.534 -77.2795
rradius 31.0847
rwrist -3.75225
rhand -8.46894 -47.8283
rfingers 7.12502
rthumb 17.4576 -77.0644
lclavicle -8.83039e-015 -2.80411e-014
lhumerus -30.0838 14.3436 78.0255
lradius 21.4866
lwrist -5.11234
lhand -23.2962 -13.7191
lfingers 7.12502
lthumb 3.15701 16.2373
rfemur -25.4898 7.14302 18.6305
rtibia 7.91143
rfoot -18.3352 -3.48098
rtoes -30.0425
lfemur -25.7027 -9.05344 -21.2218
ltibia 6.06986
lfoot -2.59837 -9.3523
ltoes -13.508
365
root 12.3024 18.8876 16.5721 -151.859 2.02898 177.126
lowerback -27.2848 -3.46404 -5.42399
upperback -3.25935 -2.11642 0.489186
thorax 11.7559 -0.878975 2.983
lowerneck -2.66094 -1.58138 1.4529
upperneck 5.38683 -2.108 -0.419397
head 2.11869 -1.00921 -0.433149
rclavicle -1.75086e-014 -1.08835e-014
rhumerus -43.2499 -14.0261 -76.9272
rradius 30.8119
rwrist -3.40548
rhand -8.33536 -47.638
rfingers 7.12502
rthumb 17.5861 -76.8626
lclavicle -1.75086e-014 -1.08835e-014
lhumerus -30.0932 14.1697 78.0793
lradius 21.4897
lwrist -5.15727
lhand -23.1746 -13.6073
lfingers 7.12502
lthumb 3.27451 16.3473
rfemur -25.05 7.00546 18.6234
rtibia 7.58029
rfoot -18.3024 -3.39504
rtoes -30.1531
lfemur -25.3677 -9.32693 -21.24
ltibia 5.88494
lfoot -2.5884 -9.0282
ltoes -14.0178
366
root 12.3041 18.8868 16.5713 -151.835 2.1071 177.146
lowerback -27.1113 -3.41186 -5.35841
upperback -3.51221 -2.04625 0.49611
thorax 11.3648 -0.813489 2.98709
lowerneck -2.43389 -1.55142 1.40953
upperneck 5.15393 -2.06351 -0.435282
head 2.00234 -0.990523 -0.42506
rclavicle 1.88234e-015 -1.651e-014
rhumerus -43.514 -14.154 -76.6715
rradius 30.6391
rwrist -3.11714
rhand -8.48653 -47.5564
rfingers 7.12502
rthumb 17.4406 -76.794
lclavicle 1.88234e-015 -1.651e-014
lhumerus -30.2949 13.9687 78.1251
lradius 21.4654
lwrist -5.12117
lhand -23.1472 -13.3188
lfingers 7.12502
lthumb 3.30095 16.6354
rfemur -25.0354 6.96296 18.6711
rtibia 7.50055
rfoot -18.3124 -3.25448
rtoes -30.1754
lfemur -25.3893 -9.11915 -21.3089
ltibia 5.91918
lfoot -2.56256 -9.03116
ltoes -13.3383
367
root 12.3006 18.8852 16.5587 -152.015 2.2817 177.156
lowerback -26.9933 -3.29313 -5.32046
upperback -3.59099 -1.90311 0.492205
thorax 11.1977 -0.737182 3.01614
lowerneck -2.24928 -1.49146 1.21246
upperneck 4.61352 -1.98744 -0.324854
head 1.79744 -0.960711 -0.349131
rclavicle 1.91579e-014 -2.85753e-016
rhumerus -43.5311 -14.5644 -76.3504
rradius 30.3371
rwrist -2.59987
rhand -8.93853 -48.148
rfingers 7.12502
rthumb 17.0056 -77.4236
lclavicle 1.91579e-014 -2.85753e-016
lhumerus -30.2405 13.6952 78.305
lradius 21.311
lwrist -5.00019
lhand -23.2744 -13.2202
lfingers 7.12502
lthumb 3.17807 16.7359
rfemur -24.7777 6.92975 18.6364
rtibia 7.40505
rfoot -18.3293 -3.03819
rtoes -29.5613
lfemur -25.0414 -9.24615 -21.3872
ltibia 5.73454
lfoot -2.62531 -8.57524
ltoes -12.8284
